<svg width="28" height="28" viewBox="0 0 28 28" fill="none" xmlns="http://www.w3.org/2000/svg">
<g id="LockKey-r">
<g id="Vector">
<path fill-rule="evenodd" clip-rule="evenodd" d="M13.8717 11.9196C13.8717 11.9196 15.0936 11.9196 15.9576 12.7836C15.9576 12.7836 16.8216 13.6476 16.8216 14.8694C16.8216 14.8694 16.8216 16.0913 15.9576 16.9553C15.9576 16.9553 15.0936 17.8193 13.8717 17.8193C13.8717 17.8193 12.6498 17.8193 11.7858 16.9553C11.7858 16.9553 10.9218 16.0913 10.9218 14.8694C10.9218 14.8694 10.9218 13.6476 11.7858 12.7836C11.7858 12.7836 12.6498 11.9196 13.8717 11.9196ZM13.8717 13.6052C13.8717 13.6052 13.348 13.6052 12.9777 13.9755C12.9777 13.9755 12.6074 14.3458 12.6074 14.8694C12.6074 14.8694 12.6074 15.3931 12.9777 15.7634C12.9777 15.7634 13.348 16.1337 13.8717 16.1337C13.8717 16.1337 14.3953 16.1337 14.7656 15.7634C14.7656 15.7634 15.1359 15.3931 15.1359 14.8694C15.1359 14.8694 15.1359 14.3458 14.7656 13.9755C14.7656 13.9755 14.3953 13.6052 13.8717 13.6052Z" fill="white"/>
<path d="M13.0289 16.9765V19.505C13.0289 19.9704 13.4062 20.3478 13.8717 20.3478C14.3372 20.3478 14.7145 19.9704 14.7145 19.505V16.9765C14.7145 16.511 14.3372 16.1337 13.8717 16.1337C13.4062 16.1337 13.0289 16.511 13.0289 16.9765Z" fill="white"/>
<path fill-rule="evenodd" clip-rule="evenodd" d="M3.75781 10.2339C3.75781 10.2339 3.75781 9.53571 4.25153 9.042C4.25153 9.042 4.74524 8.54829 5.44346 8.54829H22.2999C22.2999 8.54829 22.9981 8.54829 23.4918 9.042C23.4918 9.042 23.9855 9.53571 23.9855 10.2339V22.0334C23.9855 22.0334 23.9855 22.7317 23.4918 23.2254C23.4918 23.2254 22.9981 23.7191 22.2999 23.7191H5.44346C5.44346 23.7191 4.74524 23.7191 4.25153 23.2254C4.25153 23.2254 3.75781 22.7316 3.75781 22.0334V10.2339ZM5.44346 10.2339V22.0334L22.2999 22.0334V10.2339H5.44346Z" fill="white"/>
<path d="M16.8216 5.59841V9.39111C16.8216 9.85659 17.1989 10.2339 17.6644 10.2339C18.1298 10.2339 18.5072 9.85659 18.5072 9.39111V5.59841C18.5072 3.67831 17.1495 2.3206 17.1495 2.3206C15.7918 0.962891 13.8717 0.962891 13.8717 0.962891C11.9516 0.962891 10.5939 2.3206 10.5939 2.3206C9.23615 3.67832 9.23615 5.59841 9.23615 5.59841V9.39111C9.23615 9.85659 9.6135 10.2339 10.079 10.2339C10.5445 10.2339 10.9218 9.85659 10.9218 9.39111V5.59841C10.9218 4.37653 11.7858 3.51253 11.7858 3.51253C12.6498 2.64853 13.8717 2.64853 13.8717 2.64853C15.0936 2.64853 15.9576 3.51253 15.9576 3.51253C16.8216 4.37653 16.8216 5.59841 16.8216 5.59841Z" fill="white"/>
</g>
</g>
</svg>
