<svg width="35" height="35" viewBox="0 0 35 35" fill="none" xmlns="http://www.w3.org/2000/svg">
<g id="Megaphone-r">
<g id="Vector">
<path d="M26.5756 22.3182C26.5966 22.2342 26.6073 22.1472 26.6073 22.0606C26.6073 22.0432 26.6069 22.0257 26.606 22.0083C26.5974 21.8332 26.5456 21.663 26.4553 21.5128C26.31 21.2711 26.0747 21.0971 25.8011 21.0289C25.717 21.008 25.6307 20.9974 25.5441 20.9974C25.5318 20.9974 25.5195 20.9976 25.5073 20.998C25.033 21.0145 24.6271 21.3432 24.5124 21.8037L22.7588 28.8447L21.2944 27.8729C21.2924 27.8716 21.2912 27.871 21.2912 27.871L21.2913 11.4286C21.2913 10.8414 20.8153 10.3653 20.2281 10.3653C19.6409 10.3653 19.1649 10.8414 19.1649 11.4286L19.1649 27.8586C19.1599 28.4007 19.4165 28.8782 19.4165 28.8782C19.6731 29.3557 20.1186 29.6447 20.1186 29.6447L21.5781 30.6132C22.0092 30.901 22.5243 30.9582 22.5243 30.9582C23.0395 31.0154 23.5232 30.829 23.5232 30.829C24.0069 30.6427 24.3506 30.2546 24.3506 30.2546C24.6943 29.8666 24.8215 29.3613 24.8215 29.3613L26.5756 22.3182Z" fill="#EE5858"/>
<path fill-rule="evenodd" clip-rule="evenodd" d="M20.2281 23.1239C20.2281 23.1239 19.8367 23.1239 19.1098 23.208C19.1098 23.208 17.6136 23.3811 16.0151 23.8159C16.0151 23.8159 10.8776 25.2133 6.69883 28.7141C6.69883 28.7141 6.22461 29.1066 5.61409 29.185C5.61409 29.185 5.00356 29.2634 4.44556 29.0036C4.44556 29.0036 3.88755 28.7437 3.55463 28.226C3.55463 28.226 3.22171 27.7083 3.2168 27.0843L3.21683 6.39653C3.21683 6.39653 3.22171 5.78102 3.55463 5.26328C3.55463 5.26328 3.88755 4.74555 4.44556 4.48571C4.44556 4.48571 5.00356 4.22588 5.61409 4.3043C5.61409 4.3043 6.22461 4.38272 6.70379 4.77927C6.70379 4.77927 10.8776 8.27599 16.0151 9.67338C16.0151 9.67338 17.6136 10.1082 19.1098 10.2813C19.1098 10.2813 19.8367 10.3653 20.2281 10.3653L25.5441 10.3654C25.5441 10.3654 28.1865 10.3654 30.0549 12.2338C30.0549 12.2338 31.9234 14.1023 31.9234 16.7446C31.9234 16.7446 31.9234 19.387 30.0549 21.2554C30.0549 21.2554 28.1865 23.1239 25.5441 23.1239H20.2281ZM20.2281 20.9975L25.5441 20.9974C25.5441 20.9974 27.3057 20.9975 28.5513 19.7518C28.5513 19.7518 29.797 18.5062 29.797 16.7446C29.797 16.7446 29.797 14.9831 28.5513 13.7374C28.5513 13.7374 27.3057 12.4918 25.5441 12.4918H20.2281C20.2281 12.4918 18.2753 12.4918 15.457 11.7252C15.457 11.7252 9.87251 10.2063 5.34318 6.41341L5.34321 27.0759C5.34321 27.0759 9.86947 23.2838 15.457 21.764C15.457 21.764 18.2753 20.9975 20.2281 20.9975Z" fill="#EE5858"/>
</g>
</g>
</svg>
